<svg xmlns="http://www.w3.org/2000/svg" width="717.195" height="320.884" viewBox="0 0 717.195 320.884">
  <g id="aboutUsTrack" transform="translate(-0.229 -1177.092)">
    <path id="Path_56" data-name="Path 56" d="M0,100A142.4,142.4,0,0,0,44.5,82.207c15.5-9.719,29.6-28.634,38.2-34.135,11.541-7.386,36.42-14.846,55.266-26.82,14-8.9,23.2-22.292,28.283-29.4,9.377-13.128,4.754-42.526,20.074-75.015s34.46-47.24,52.421-66.258,30.865-63.573,60.629-67.924c44.46-6.5,82.411,42.729,118.171,82.553,5,5.568,16.155,36,32.509,56.078,12.542,15.4,29.47,19.213,41.449,34.947,27.227,35.76,12.105,41.128,34.948,52.015C558.092,23.327,589.905,4.74,619.106,0A205.649,205.649,0,0,1,684,0" transform="translate(0.5 1396.5)" fill="none" stroke="#2e5c62" stroke-width="3"/>
    <g id="Group_22" data-name="Group 22" transform="translate(-987 742.777)">
      <line id="Line_12" data-name="Line 12" x1="15.775" y2="18.808" transform="translate(1687.5 654.5)" fill="none" stroke="#2e5c62" stroke-width="3"/>
      <line id="Line_13" data-name="Line 13" x2="15.775" y2="18.808" transform="translate(1687.5 654.5)" fill="none" stroke="#2e5c62" stroke-width="3"/>
    </g>
  </g>
</svg>
