<svg xmlns="http://www.w3.org/2000/svg" width="689.5" height="204.209" viewBox="0 0 689.5 204.209">
  <g id="contactUsTrack" transform="translate(-1231.461 -4440.832)">
    <path id="Path_59" data-name="Path 59" d="M0,0S15.366,1.664,28.7,9.1c12.229,6.822,9.781,14.79,31.489,17.175s28.387-9.78,55.344-7.633,43.737,14.111,52.481,16.222c27.672,6.679,40.563-10.209,48.664-8.588C245.3,32,227.17,40.349,250.071,42.5s38.168-14.313,58.206-7.633S306.845,58,330.223,69.214s45.8-4.771,71.565,10.5,28.088,45.471,31.489,50.573c8.176,12.263,29.58,4.294,45.8,18.13s-4.771,27.26,19.084,37.214,97.406,3.819,120.23,0C651.56,180.077,658,178,658,178" transform="translate(1262.5 4452.5)" fill="none" stroke="#fcfcfc" stroke-width="3"/>
    <g id="Group_25" data-name="Group 25" transform="matrix(-0.951, -0.309, 0.309, -0.951, 2649.203, 5606.816)">
      <line id="Line_12" data-name="Line 12" x1="14.4" y2="17.17" transform="translate(1687.5 654.5)" fill="none" stroke="#fcfcfc" stroke-width="3"/>
      <line id="Line_13" data-name="Line 13" x2="14.4" y2="17.17" transform="translate(1687.5 654.5)" fill="none" stroke="#fcfcfc" stroke-width="3"/>
    </g>
  </g>
</svg>
