<svg xmlns="http://www.w3.org/2000/svg" width="161.071" height="457.34" viewBox="0 0 161.071 457.34">
  <g id="testimonialsTrack" transform="translate(-937.114 -3414.432)">
    <path id="Path_58" data-name="Path 58" d="M0,0S6.991,14.674,4,27.02C1.41,37.736-11.213,45.34-10.676,62.026-10.21,76.5,4.36,91.568,4,108.325c-.478,22.491-10.255,43.794-9.034,65.5.956,16.987,17.43,30.584,18.068,44.041C13.864,235.3,1.463,231.552,4,251.173s12.845,20.609,19.2,45.169-14.115,23.714-3.388,39.523,65.5,28.27,96.55,51.945S144,430,144,430" transform="translate(952.5 3441.5)" fill="none" stroke="#716459" stroke-width="3"/>
    <g id="Group_24" data-name="Group 24" transform="matrix(0.139, -0.99, 0.99, 0.139, 55.244, 5009.953)">
      <line id="Line_12" data-name="Line 12" x1="14.4" y2="17.17" transform="translate(1687.5 654.5)" fill="none" stroke="#716459" stroke-width="3"/>
      <line id="Line_13" data-name="Line 13" x2="14.4" y2="17.17" transform="translate(1687.5 654.5)" fill="none" stroke="#716459" stroke-width="3"/>
    </g>
  </g>
</svg>
