<svg xmlns="http://www.w3.org/2000/svg" width="458.63" height="133.316" viewBox="0 0 458.63 133.316">
  <g id="whatWeDoTrack" transform="translate(-1289.464 -2159.123)">
    <path id="Path_57" data-name="Path 57" d="M429,0s-36.284,15.648-56.086,46.83c-14.309,22.533-6.991,61.241-34.381,69.17-10.231,2.962-25.778-6.888-44.695-5.565-10.782.754-25.786,13.182-38.392,13.752-11.359.513-23.569-13.89-36.1-13.752-14.14.156-29.482,18.065-44.122,18.336-24.158.447-54.939-11.419-77.356-12.771-13.536-.816-25.137,8.385-36.673,8.187-14.976-.257-27.5-12.145-37.819-13.752C8.905,108.18,0,116,0,116" transform="translate(1318.5 2160.5)" fill="none" stroke="#fcfcfc" stroke-width="3"/>
    <g id="Group_23" data-name="Group 23" transform="matrix(-0.978, -0.208, 0.208, -0.978, 2819.42, 3282.305)">
      <line id="Line_12" data-name="Line 12" x1="14.4" y2="17.17" transform="translate(1687.5 654.5)" fill="none" stroke="#fcfcfc" stroke-width="3"/>
      <line id="Line_13" data-name="Line 13" x2="14.4" y2="17.17" transform="translate(1687.5 654.5)" fill="none" stroke="#fcfcfc" stroke-width="3"/>
    </g>
  </g>
</svg>
