<svg xmlns="http://www.w3.org/2000/svg" width="50" height="38.051" viewBox="0 0 50 38.051">
  <g id="envelope" transform="translate(0 -57.75)">
    <g id="Group_12" data-name="Group 12" transform="translate(0 57.75)">
      <path id="Path_46" data-name="Path 46" d="M43.9,57.75H6.114A6.12,6.12,0,0,0,0,63.864V89.687A6.12,6.12,0,0,0,6.114,95.8H43.886A6.12,6.12,0,0,0,50,89.687V63.875A6.113,6.113,0,0,0,43.9,57.75Zm3.321,31.937A3.325,3.325,0,0,1,43.9,93.008H6.114a3.325,3.325,0,0,1-3.321-3.321V63.875a3.325,3.325,0,0,1,3.321-3.321H43.886a3.325,3.325,0,0,1,3.321,3.321V89.687Z" transform="translate(0 -57.75)" fill="#716459"/>
      <path id="Path_47" data-name="Path 47" d="M81.518,122.315l12.228-10.966a1.4,1.4,0,1,0-1.873-2.079L75.01,124.4l-3.29-2.938c-.01-.01-.021-.021-.021-.031a2.069,2.069,0,0,0-.228-.2l-13.387-11.98a1.4,1.4,0,1,0-1.862,2.09L68.6,122.408,56.275,133.944a1.4,1.4,0,0,0-.062,1.976,1.429,1.429,0,0,0,1.024.445,1.4,1.4,0,0,0,.952-.372l12.508-11.7,3.393,3.031a1.393,1.393,0,0,0,1.862-.01l3.486-3.124L91.874,136a1.4,1.4,0,0,0,1.976-.052,1.4,1.4,0,0,0-.052-1.976Z" transform="translate(-49.985 -103.61)" fill="#716459"/>
    </g>
  </g>
</svg>
