<svg xmlns="http://www.w3.org/2000/svg" width="50" height="50" viewBox="0 0 50 50">
  <path id="facebook" d="M7.324,50H23.633V32.227H17.773V26.367h5.859V19.043a7.332,7.332,0,0,1,7.324-7.324h7.324v5.859H32.422a2.933,2.933,0,0,0-2.93,2.93v5.859h8.525l-.977,5.859H29.492V50H42.676A7.332,7.332,0,0,0,50,42.676V7.324A7.332,7.332,0,0,0,42.676,0H7.324A7.332,7.332,0,0,0,0,7.324V42.676A7.332,7.332,0,0,0,7.324,50ZM2.93,7.324A4.4,4.4,0,0,1,7.324,2.93H42.676A4.4,4.4,0,0,1,47.07,7.324V42.676a4.4,4.4,0,0,1-4.395,4.395H32.422V35.156h7.1l1.953-11.719H32.422v-2.93h8.789V8.789H30.957A10.265,10.265,0,0,0,20.7,19.043v4.395H14.844V35.156H20.7V47.07H7.324A4.4,4.4,0,0,1,2.93,42.676Zm0,0" fill="#716459"/>
</svg>
