<svg id="instagram" xmlns="http://www.w3.org/2000/svg" width="50" height="50" viewBox="0 0 50 50">
  <path id="Path_48" data-name="Path 48" d="M36.2,0H13.8A13.814,13.814,0,0,0,0,13.8V36.2A13.814,13.814,0,0,0,13.8,50H36.2A13.814,13.814,0,0,0,50,36.2V13.8A13.814,13.814,0,0,0,36.2,0Zm9.363,36.2A9.373,9.373,0,0,1,36.2,45.564H13.8A9.372,9.372,0,0,1,4.436,36.2V13.8A9.373,9.373,0,0,1,13.8,4.436H36.2A9.373,9.373,0,0,1,45.564,13.8V36.2Z" transform="translate(0 0)" fill="#716459"/>
  <path id="Path_49" data-name="Path 49" d="M53.852,40.97A12.883,12.883,0,1,0,66.735,53.854,12.9,12.9,0,0,0,53.852,40.97Zm0,21.33A8.447,8.447,0,1,1,62.3,53.853,8.457,8.457,0,0,1,53.852,62.3Z" transform="translate(-28.852 -28.853)" fill="#716459"/>
  <path id="Path_50" data-name="Path 50" d="M122.174,28.251a3.251,3.251,0,1,0,2.3.952A3.266,3.266,0,0,0,122.174,28.251Z" transform="translate(-83.75 -19.896)" fill="#716459"/>
</svg>
