<svg id="testimonialQ2" xmlns="http://www.w3.org/2000/svg" width="572.4" height="284.805" viewBox="0 0 572.4 284.805">
  <g id="Path_40" data-name="Path 40" transform="translate(1 1)" fill="none">
    <path d="M0,0H570V283H0Z" stroke="none"/>
    <path d="M 5 5 L 5 278 L 565 278 L 565 5 L 5 5 M 0 0 L 570 0 L 570 283 L 0 283 L 0 0 Z" stroke="none" fill="#c1c2b5"/>
  </g>
  <g id="Group_9" data-name="Group 9" transform="translate(419.66 172.815)">
    <rect id="Rectangle_16" data-name="Rectangle 16" width="152.392" height="111.99" fill="#fcfcfc"/>
    <path id="right-quote" d="M43.267,164.358H21.873l1.763-6.211c1.723-6.071,4.456-17.04,4.456-20.63,0-.876-.026-1.517-.061-1.981a29.282,29.282,0,1,1,30.6-29.253c0,32.979-13.357,54.854-13.925,55.77ZM34.7,154.6h2.963a108.389,108.389,0,0,0,11.19-48.315A19.542,19.542,0,1,0,28.925,125.8l.214.005c4.284.024,6.373,2.222,7.372,4.068,1.121,2.072,1.351,4.555,1.351,7.645C37.862,141.411,36.1,149.087,34.7,154.6Zm-5.4-19.023Zm80.412,28.784H88.315l1.763-6.211c1.723-6.071,4.456-17.04,4.456-20.63,0-.876-.026-1.517-.061-1.981a29.282,29.282,0,1,1,30.6-29.253c0,32.979-13.357,54.854-13.925,55.77Zm-8.566-9.761h2.963a108.389,108.389,0,0,0,11.19-48.315A19.542,19.542,0,1,0,95.367,125.8l.214.005c4.284.024,6.373,2.222,7.372,4.068,1.121,2.072,1.351,4.555,1.351,7.645C104.3,141.411,102.546,149.087,101.143,154.6Zm-5.4-19.023Z" transform="translate(27.673 -52.376)" fill="#c1c2b5"/>
  </g>
  <g id="Component_2_3" data-name="Component 2 – 3">
    <path id="Path_39" data-name="Path 39" d="M0,0H152.745V111.991H0Z" transform="translate(0 0)" fill="#fcfcfc"/>
    <path id="left-quote" d="M95.976,164.356A29.364,29.364,0,0,1,66.6,135.074c0-32.977,13.388-54.853,13.957-55.768L81.989,77h21.444l-1.767,6.211c-1.727,6.071-4.466,17.04-4.466,20.63,0,.876.026,1.517.061,1.981a29.279,29.279,0,0,1-1.286,58.534Zm-8.37-77.6a108.179,108.179,0,0,0-11.216,48.314,19.587,19.587,0,1,0,19.975-19.516l-.213-.005c-4.3-.023-6.39-2.221-7.391-4.067-1.124-2.072-1.354-4.555-1.354-7.645,0-3.894,1.761-11.57,3.168-17.081Zm8.386,19.023ZM29.38,164.356A29.364,29.364,0,0,1,0,135.074C0,102.1,13.388,80.222,13.957,79.307L15.394,77H36.838l-1.767,6.211c-1.727,6.071-4.466,17.04-4.466,20.63,0,.876.026,1.517.061,1.981a29.279,29.279,0,0,1-1.286,58.534Zm-8.37-77.6A108.179,108.179,0,0,0,9.793,135.074a19.587,19.587,0,1,0,19.975-19.516l-.213-.005c-4.3-.023-6.39-2.221-7.391-4.067-1.124-2.072-1.354-4.555-1.354-7.645,0-3.894,1.761-11.57,3.168-17.081ZM29.4,105.783Z" transform="translate(0 -77)" fill="#c1c2b5"/>
  </g>
</svg>
