<svg id="testimonialQ1" xmlns="http://www.w3.org/2000/svg" width="565.18" height="710.99" viewBox="0 0 565.18 710.99">
  <g id="Rectangle_15" data-name="Rectangle 15" transform="translate(5 3)" fill="none" stroke="#2e5c62" stroke-width="5">
    <rect width="559" height="707" stroke="none"/>
    <rect x="2.5" y="2.5" width="554" height="702" fill="none"/>
  </g>
  <g id="Component_2_1" data-name="Component 2 – 1">
    <path id="Path_39" data-name="Path 39" d="M0,0H192.745V140.991H0Z" transform="translate(0 0)" fill="#fcfcfc"/>
    <path id="left-quote" d="M121.11,186.976a37.011,37.011,0,0,1-37.074-36.864c0-41.517,16.894-69.057,17.612-70.209L103.46,77H130.52l-2.23,7.82c-2.179,7.643-5.636,21.452-5.636,25.972,0,1.1.033,1.909.078,2.494a36.944,36.944,0,0,1,24.832,11,36.542,36.542,0,0,1,10.62,25.826A37.011,37.011,0,0,1,121.11,186.976ZM110.547,89.288c-4.009,7.731-14.154,30.314-14.154,60.825A24.717,24.717,0,1,0,121.6,125.543l-.268-.006c-5.421-.029-8.063-2.8-9.327-5.121-1.418-2.609-1.709-5.734-1.709-9.625,0-4.9,2.223-14.566,4-21.5Zm10.582,23.948Zm-84.055,73.74A37.011,37.011,0,0,1,0,150.113C0,108.6,16.894,81.056,17.612,79.9L19.425,77H46.484l-2.23,7.82c-2.179,7.643-5.636,21.452-5.636,25.972,0,1.1.033,1.909.078,2.494a36.944,36.944,0,0,1,24.832,11,36.542,36.542,0,0,1,10.62,25.826A37.011,37.011,0,0,1,37.074,186.976ZM26.512,89.288C22.5,97.019,12.358,119.6,12.358,150.113a24.717,24.717,0,1,0,25.207-24.569l-.268-.006c-5.421-.029-8.063-2.8-9.327-5.121-1.418-2.609-1.709-5.734-1.709-9.625,0-4.9,2.223-14.566,4-21.5Zm10.582,23.948Z" transform="translate(0 -77)" fill="#2e5c62"/>
  </g>
  <g id="Group_9" data-name="Group 9" transform="translate(270 -2718)">
    <rect id="Rectangle_16" data-name="Rectangle 16" width="192.74" height="140.99" transform="translate(102 3288)" fill="#fcfcfc"/>
    <g id="right-quote" transform="translate(137 3319)">
      <path id="right-quote-2" data-name="right-quote" d="M54.722,186.98H27.664l2.229-7.82c2.179-7.643,5.635-21.453,5.635-25.973,0-1.1-.033-1.91-.078-2.494a36.943,36.943,0,0,1-24.831-11A36.545,36.545,0,0,1,0,113.865a37.074,37.074,0,0,1,74.147,0c0,41.518-16.893,69.059-17.612,70.211ZM43.888,174.692h3.748c4.009-7.731,14.153-30.315,14.153-60.827a24.716,24.716,0,1,0-25.206,24.57l.271.007c5.418.03,8.06,2.8,9.323,5.121,1.418,2.609,1.709,5.734,1.709,9.625C47.887,158.09,45.664,167.754,43.888,174.692Zm-6.835-23.949Zm101.7,36.237H111.7l2.229-7.82c2.179-7.643,5.635-21.453,5.635-25.973,0-1.1-.033-1.91-.078-2.494a36.943,36.943,0,0,1-24.831-11,36.545,36.545,0,0,1-10.62-25.827,37.074,37.074,0,0,1,74.147,0c0,41.518-16.893,69.059-17.612,70.211Zm-10.834-12.288h3.748c4.009-7.731,14.153-30.315,14.153-60.827a24.716,24.716,0,1,0-25.206,24.57l.271.007c5.418.03,8.06,2.8,9.323,5.121,1.418,2.609,1.709,5.734,1.709,9.625C131.92,158.09,129.7,167.754,127.922,174.692Zm-6.835-23.949Z" transform="translate(0 -77)" fill="#2e5c62"/>
    </g>
  </g>
</svg>
