<svg xmlns="http://www.w3.org/2000/svg" width="60.109" height="50" viewBox="0 0 60.109 50">
  <path id="twitter" d="M59.154,40.308a23.8,23.8,0,0,1-4.145,1.4,12.922,12.922,0,0,0,3.411-5.432h0a.678.678,0,0,0-.991-.789h0A23.916,23.916,0,0,1,51.093,38.1a1.615,1.615,0,0,1-.4.049,1.68,1.68,0,0,1-1.109-.424,12.959,12.959,0,0,0-8.574-3.236,13.855,13.855,0,0,0-4.106.634,12.555,12.555,0,0,0-8.461,9.046,13.824,13.824,0,0,0-.307,4.772.464.464,0,0,1-.117.364.48.48,0,0,1-.357.162l-.046,0A33.98,33.98,0,0,1,4.263,36.988h0a.678.678,0,0,0-1.111.087h0A12.974,12.974,0,0,0,5.261,52.828a11.613,11.613,0,0,1-2.956-1.144h0a.678.678,0,0,0-1.007.584h0A12.975,12.975,0,0,0,8.868,64.222q-.138,0-.277,0a11.66,11.66,0,0,1-2.183-.208h0a.678.678,0,0,0-.772.872h0a12.988,12.988,0,0,0,10.259,8.834A23.913,23.913,0,0,1,2.5,77.79H1a.992.992,0,0,0-.97.748,1.027,1.027,0,0,0,.491,1.134A35.568,35.568,0,0,0,18.4,84.491a36.056,36.056,0,0,0,15.274-3.24,33.728,33.728,0,0,0,11.175-8.374,36.714,36.714,0,0,0,6.843-11.461,36.2,36.2,0,0,0,2.326-12.543v-.2a2.205,2.205,0,0,1,.825-1.716A25.614,25.614,0,0,0,59.992,41.3h0a.678.678,0,0,0-.838-1Z" transform="translate(0 -34.491)" fill="#716459"/>
</svg>
