<svg xmlns="http://www.w3.org/2000/svg" width="50" height="50.408" viewBox="0 0 50 50.408">
  <g id="whatsapp" transform="translate(-1.69)" style="isolation: isolate">
    <path id="Path_53" data-name="Path 53" d="M25.468.029A25.01,25.01,0,0,0,4.411,36.354L1.757,49.237a.973.973,0,0,0,1.177,1.143L15.559,47.39A25,25,0,1,0,25.468.029ZM40.532,38.842a19.588,19.588,0,0,1-22.554,3.692l-1.758-.876-7.74,1.834,1.629-7.909-.866-1.7a19.592,19.592,0,0,1,3.606-22.728A19.575,19.575,0,1,1,40.532,38.842Z" transform="translate(0 0)" fill="#716459"/>
    <path id="Path_54" data-name="Path 54" d="M129.31,124.889l-4.842-1.39a1.8,1.8,0,0,0-1.786.471l-1.184,1.206a1.764,1.764,0,0,1-1.918.4c-2.291-.927-7.109-5.212-8.34-7.355a1.764,1.764,0,0,1,.14-1.955l1.034-1.338a1.8,1.8,0,0,0,.223-1.834l-2.037-4.608a1.806,1.806,0,0,0-2.82-.646c-1.352,1.143-2.955,2.88-3.15,4.8-.344,3.393,1.111,7.67,6.614,12.805,6.357,5.933,11.447,6.717,14.762,5.914,1.88-.455,3.382-2.281,4.33-3.775A1.806,1.806,0,0,0,129.31,124.889Z" transform="translate(-90.487 -94.467)" fill="#716459"/>
  </g>
</svg>
